<?xml version="1.0" standalone="no"?>
<!DOCTYPE svg PUBLIC "-//W3C//DTD SVG 20010904//EN"
 "http://www.w3.org/TR/2001/REC-SVG-20010904/DTD/svg10.dtd">
<svg version="1.0" xmlns="http://www.w3.org/2000/svg"
 width="512.000000pt" height="512.000000pt" viewBox="0 0 512.000000 512.000000"
 preserveAspectRatio="xMidYMid meet">
<metadata>
Created by potrace 1.14, written by Peter Selinger 2001-2017
</metadata>
<g transform="translate(0.000000,512.000000) scale(0.100000,-0.100000)"
fill="#000000" stroke="none">
<path d="M3734 5058 c-399 -255 -723 -620 -865 -973 -34 -84 -73 -223 -84
-297 l-7 -44 63 -13 c303 -62 559 -219 699 -426 92 -137 132 -276 134 -467 0
-71 4 -128 7 -128 3 0 51 60 106 133 87 117 98 137 91 158 -46 121 -132 458
-152 593 -4 21 -8 48 -11 60 -7 36 -22 175 -31 291 -6 92 -6 354 1 430 23 257
60 467 116 658 11 38 19 71 17 73 -2 2 -40 -20 -84 -48z"/>
<path d="M119 4668 c-1 -18 -3 -44 -5 -58 -11 -81 -4 -433 11 -530 2 -14 9
-61 15 -105 6 -44 15 -93 20 -110 5 -16 12 -48 16 -70 3 -22 8 -43 11 -47 2
-5 6 -16 8 -25 9 -47 62 -198 98 -283 84 -197 206 -402 344 -579 84 -108 321
-344 443 -443 164 -131 276 -208 495 -338 76 -46 375 -193 415 -205 14 -4 30
-11 35 -15 6 -4 37 -17 70 -29 33 -13 69 -27 80 -31 11 -5 57 -21 103 -37 l83
-29 -58 -50 c-74 -62 -67 -57 -138 -109 -154 -114 -441 -262 -685 -353 -130
-49 -248 -90 -280 -98 -8 -2 -78 -21 -155 -43 -77 -21 -174 -47 -216 -56 l-76
-17 -16 -52 c-9 -28 -19 -64 -21 -81 -3 -16 -8 -41 -11 -55 -14 -61 -13 -209
1 -271 39 -168 176 -355 342 -467 62 -42 122 -75 127 -70 1 2 36 48 77 103
248 334 545 559 840 635 138 35 193 45 373 65 28 3 70 8 95 11 25 3 205 7 400
9 195 2 371 6 390 9 176 25 374 99 505 190 45 31 165 136 201 176 182 201 311
463 399 810 24 96 68 323 80 415 9 76 33 172 50 205 32 62 122 137 228 189 56
28 123 56 150 63 26 7 47 15 47 19 0 15 -160 155 -214 188 -103 62 -172 84
-266 85 -58 1 -104 -5 -145 -18 -139 -44 -299 -183 -428 -374 -146 -216 -287
-323 -382 -292 l-33 11 1 92 c3 228 -43 390 -158 552 -145 203 -436 361 -755
410 -25 4 -87 21 -138 37 -51 17 -98 31 -105 32 -31 6 -411 135 -564 192 -115
42 -319 121 -348 134 -11 4 -105 45 -210 90 -433 188 -858 425 -1073 599 -34
28 -64 51 -67 51 -3 0 -6 -15 -6 -32z"/>
</g>
</svg>
