<?xml version="1.0" standalone="no"?>
<!DOCTYPE svg PUBLIC "-//W3C//DTD SVG 20010904//EN"
 "http://www.w3.org/TR/2001/REC-SVG-20010904/DTD/svg10.dtd">
<svg version="1.0" xmlns="http://www.w3.org/2000/svg"
 width="529.000000pt" height="529.000000pt" viewBox="0 0 529.000000 529.000000"
 preserveAspectRatio="xMidYMid meet">
<metadata>
Created by potrace 1.11, written by Peter Selinger 2001-2013
</metadata>
<g transform="translate(0.000000,529.000000) scale(0.100000,-0.100000)"
fill="#000000" stroke="none">
<path d="M1088 5105 c-2 -2 -29 -6 -60 -9 -32 -4 -86 -13 -120 -20 -35 -8 -83
-17 -107 -20 -70 -9 -242 -57 -296 -82 -40 -18 -51 -29 -53 -49 -1 -14 3 -25
10 -25 6 0 9 -3 5 -6 -3 -4 -1 -12 6 -20 27 -31 37 -44 54 -75 10 -19 31 -52
45 -75 14 -23 35 -56 45 -75 41 -73 58 -99 66 -99 4 0 7 -6 7 -14 0 -17 170
-186 187 -186 7 0 13 -5 13 -10 0 -12 147 -110 166 -110 7 0 19 -6 26 -13 15
-14 123 -51 183 -63 22 -4 45 -8 50 -9 6 -1 37 -5 70 -9 33 -3 69 -8 80 -10
27 -5 124 -15 215 -21 41 -3 91 -8 110 -10 37 -4 202 -14 350 -20 253 -10 281
-14 347 -53 34 -20 61 -38 60 -38 -1 -1 -46 -5 -100 -9 -54 -3 -108 -8 -119
-10 -35 -7 -110 -15 -188 -20 -176 -11 -279 -24 -370 -46 -226 -55 -477 -193
-640 -351 -153 -148 -305 -387 -395 -620 -30 -79 -70 -246 -81 -338 -21 -180
-6 -492 31 -665 8 -38 16 -82 19 -96 17 -105 102 -369 154 -479 175 -377 199
-421 295 -567 47 -70 94 -138 104 -150 10 -12 25 -30 33 -40 108 -134 132
-157 157 -158 17 0 63 -43 63 -58 0 -16 45 -57 62 -57 6 0 34 -15 62 -33 83
-54 91 -59 316 -150 127 -52 234 -81 395 -109 79 -13 634 -18 755 -6 69 7 90
10 160 23 14 2 57 7 95 10 39 3 86 8 106 11 20 2 59 7 85 10 27 2 66 9 87 15
21 5 50 12 65 14 42 5 139 35 196 60 130 58 346 285 481 507 49 81 103 183
150 288 58 127 210 500 227 555 23 75 67 244 74 279 3 17 12 67 20 111 46 255
36 652 -22 905 -33 145 -132 374 -215 498 -16 24 -29 45 -29 48 0 14 -145 196
-202 252 -162 162 -489 324 -723 358 -27 4 -183 8 -345 8 l-295 1 4 25 c10 77
95 181 206 255 89 59 113 104 80 151 -18 26 -97 39 -143 23 -17 -6 -38 -22
-48 -37 -10 -15 -49 -65 -87 -112 -74 -90 -105 -146 -133 -242 -19 -63 -14
-60 -109 -60 -133 0 -139 1 -175 35 -42 37 -56 67 -100 202 -17 55 -49 136
-70 180 -20 44 -53 111 -71 150 -44 93 -127 212 -181 261 -92 82 -111 96 -186
133 -97 49 -274 117 -327 126 -22 4 -82 9 -133 11 -50 2 -109 6 -130 10 -20 3
-93 7 -162 10 -69 2 -133 6 -142 8 -9 2 -18 2 -20 1z"/>
</g>
</svg>
